{
    "asset" : {
        "generator" : "Khronos glTF Blender I/O v3.4.50",
        "version" : "2.0"
    },
    "scene" : 0,
    "scenes" : [
        {
            "name" : "Scene",
            "nodes" : [
                0,
                1
            ]
        }
    ],
    "nodes" : [
        {
            "mesh" : 0,
            "name" : "metal"
        },
        {
            "mesh" : 1,
            "name" : "wood"
        }
    ],
    "meshes" : [
        {
            "name" : "Cube.001",
            "primitives" : [
                {
                    "attributes" : {
                        "POSITION" : 0,
                        "NORMAL" : 1
                    },
                    "indices" : 2
                }
            ]
        },
        {
            "name" : "Cube.003",
            "primitives" : [
                {
                    "attributes" : {
                        "POSITION" : 3,
                        "TEXCOORD_0" : 4,
                        "NORMAL" : 5
                    },
                    "indices" : 6
                }
            ]
        }
    ],
    "accessors" : [
        {
            "bufferView" : 0,
            "componentType" : 5126,
            "count" : 19106,
            "max" : [
                0.045958466827869415,
                0.20083585381507874,
                0.4609639346599579
            ],
            "min" : [
                -0.03177507594227791,
                -0.20259824395179749,
                0.3782616853713989
            ],
            "type" : "VEC3"
        },
        {
            "bufferView" : 1,
            "componentType" : 5126,
            "count" : 19106,
            "type" : "VEC3"
        },
        {
            "bufferView" : 2,
            "componentType" : 5123,
            "count" : 104448,
            "type" : "SCALAR"
        },
        {
            "bufferView" : 3,
            "componentType" : 5126,
            "count" : 317,
            "max" : [
                0.48320654034614563,
                0.3866642415523529,
                0.4761147201061249
            ],
            "min" : [
                -0.4690231382846832,
                -0.4403880536556244,
                -0.476114958524704
            ],
            "type" : "VEC3"
        },
        {
            "bufferView" : 4,
            "componentType" : 5126,
            "count" : 317,
            "type" : "VEC2"
        },
        {
            "bufferView" : 5,
            "componentType" : 5126,
            "count" : 317,
            "type" : "VEC3"
        },
        {
            "bufferView" : 6,
            "componentType" : 5123,
            "count" : 396,
            "type" : "SCALAR"
        }
    ],
    "bufferViews" : [
        {
            "buffer" : 0,
            "byteLength" : 229272,
            "byteOffset" : 0,
            "target" : 34962
        },
        {
            "buffer" : 0,
            "byteLength" : 229272,
            "byteOffset" : 229272,
            "target" : 34962
        },
        {
            "buffer" : 0,
            "byteLength" : 208896,
            "byteOffset" : 458544,
            "target" : 34963
        },
        {
            "buffer" : 0,
            "byteLength" : 3804,
            "byteOffset" : 667440,
            "target" : 34962
        },
        {
            "buffer" : 0,
            "byteLength" : 2536,
            "byteOffset" : 671244,
            "target" : 34962
        },
        {
            "buffer" : 0,
            "byteLength" : 3804,
            "byteOffset" : 673780,
            "target" : 34962
        },
        {
            "buffer" : 0,
            "byteLength" : 792,
            "byteOffset" : 677584,
            "target" : 34963
        }
    ],
    "buffers" : [
        {
            "byteLength" : 678376,
            "uri" : "data:application/octet-stream;base64,"
        }
    ]
}
